<svg width="32" height="32" viewBox="0 0 32 32" fill="none" xmlns="http://www.w3.org/2000/svg">
  <defs>
    <linearGradient id="g" x1="0" y1="0" x2="32" y2="32" gradientUnits="userSpaceOnUse">
      <stop stop-color="#6366f1"/>
      <stop offset="0.55" stop-color="#8b5cf6"/>
      <stop offset="1" stop-color="#d946ef"/>
    </linearGradient>
  </defs>
  <rect width="32" height="32" rx="8" fill="url(#g)"/>
  <g transform="translate(4 4)">
    <path d="M12 6.042A8.967 8.967 0 006 3.75c-1.052 0-2.062.18-3 .512v14.25A8.987 8.987 0 016 18c2.305 0 4.408.867 6 2.292m0-14.25a8.966 8.966 0 016-2.292c1.052 0 2.062.18 3 .512v14.25A8.987 8.987 0 0018 18a8.967 8.967 0 00-6 2.292m0-14.25v14.25" stroke="white" stroke-width="1.9" stroke-linecap="round" stroke-linejoin="round"/>
  </g>
</svg>
